<svg version="1" xmlns="http://www.w3.org/2000/svg" width="1181.333" height="1181.333" viewBox="0 0 886.000000 886.000000"><path d="M411.5 1.1c-100.6 7.6-194.1 48-268.6 116.1-53.4 48.9-95.1 112.7-118.8 182.2C-16.8 419.1-5.1 549 56.6 659.5 134.2 798.6 283.3 886 443 886c99.3 0 198.4-34.6 275.5-96.2 67-53.6 116-123 143.4-203.2 40.9-119.7 29.2-249.6-32.5-360.1C751.3 86.5 600.9-1.1 440.5.1c-9.9.1-22.9.6-29 1zM446.4 228c3.6 0 8.7 9.2 36.1 64.7 29.1 58.9 29.3 59.2 32.6 59.8 1.9.3 31.1 4.5 65 9.4 65.4 9.5 68.2 10.1 70.7 15.6 1.8 4 1.5 6.8-1.5 11.2-1.6 2.2-23.6 24.3-49 49.1-32.9 32.3-46 45.7-45.7 46.9 1.9 8.3 21.4 125.5 21.4 128.7 0 4.8-2.9 10.2-6.4 11.8-1.8.8-3.7.8-7-.1-2.5-.6-30.2-14.6-61.6-31.1-31.4-16.5-57.5-30-58-30-.6 0-26.7 13.5-58.1 30-33.2 17.5-59.2 30.6-62.1 31.2-4.3 1-5.1.9-7.6-.9-3.6-2.7-5.2-5.9-5.2-11.1 0-3.3 19.4-119.8 21.4-128.5.3-1.3-12.6-14.4-46.4-47.4-25.8-25.1-47.8-47.3-48.9-49.4-2.4-4.2-2.6-6.7-.9-10.4 2.5-5.5 5.3-6.1 70.7-15.6 33.9-4.9 63.1-9.1 65-9.4 3.3-.6 3.5-1 32.6-59.8 16.7-33.8 30.4-60.4 31.9-61.9 2.7-2.7 5.9-3.8 8.4-3.2.8.2 1.9.4 2.6.4z"/></svg>